<svg xmlns="http://www.w3.org/2000/svg" viewBox="-8 -8 16 16">
  <!-- adapted from https://github.com/bryceco/GoMap/blob/master/src/AppIcon.svg -->
  <defs>
    <linearGradient
       id="editor-gomap-gradient" gradientTransform="rotate(90)">
      <stop offset="0" stop-color="#34495e" />
      <stop offset="1" stop-color="#2c3e50" />
    </linearGradient>
  </defs>
  <rect x="-8" y="-8" width="16" height="16" rx="3.5" fill="url(#editor-gomap-gradient)" />
  <path d="M0,.7 C-4.8,-3.3 -2.5,-6.5 0,-6.5 2.5,-6.5 4.8,-3.3 0,.7 Z M0,-1.7 A2,2 0 0 0 0,-5.7 A2,2 0 0 0 0,-1.7 Z" fill="#4cd964" />
  <line x1="-1.4" x2="1.4" y1="-3.7" y2="-3.7" stroke-width=".7" stroke-linecap="round" stroke="#4cd964" />
  <line x1="0" x2="0" y1="-5.1" y2="-2.3" stroke-width=".7" stroke-linecap="round" stroke="#4cd964" />
  <g transform="translate(-8 -8) scale(.11811) translate(-1460.65173,-1157.91594)">
    <path fill="#ffffff"
       d="m 1569.5379,1221.5028 -26.9922,0.084 c -3.8366,4.3759 -8.0806,8.5238 -12.0528,12.4959 l -2.5265,2.5245 -2.5273,-2.5245 c -3.9448,-3.9447 -8.1575,-8.0626 -11.9732,-12.4052 l -26.073,0.081 -13.7829,46.233 109.5838,0.1277 z" />
    <path fill="#5ac8fa"
       d="m 1484.4748,1231.5469 -6.5257,21.8888 31.2587,-8.2364 z" />
    <path fill="#4cd964"
       d="m 1573.267,1234.2319 -22.2658,5.8675 -8.7201,27.9728 40.9127,0.047 z" />
    <path fill="#ffcc00"
       d="m 1569.5379,1221.5028 -26.9922,0.084 c -3.8366,4.3759 -8.0806,8.5238 -12.0528,12.4959 l -2.5265,2.5245 -2.5273,-2.5245 c -3.9448,-3.9447 -8.1575,-8.0626 -11.9732,-12.4052 l -26.073,0.081 -1.2465,4.1807 31.0703,17.1498 54.4422,-14.3462 z" />
    <path fill="#ffcc00"
       d="m 1544.4769,1241.8185 -68.4409,18.0348 -2.426,8.138 62.6849,0.074 z" />
  </g>
</svg>
