<svg xmlns="http://www.w3.org/2000/svg" viewBox="-8 -8 16 16">
<!-- simplified version based on https://github.com/bryceco/GoMap/blob/master/src/AppIcon.svg -->
<defs>
<linearGradient id="editor-gomap-gradient" gradientTransform="rotate(90)">
<stop offset="0" stop-color="#34495e" />
<stop offset="1" stop-color="#2c3e50" />
</linearGradient>
<clipPath id="editor-gomap-map">
<path d="M-5,-.5 H-1.8 L0,1.2 L1.8,-.5 H5 L6.5,5 H-6.5 Z" />
</clipPath>
</defs>
<rect x="-8" y="-8" width="16" height="16" rx="3.5" fill="url(#editor-gomap-gradient)" />
<path d="M0,.7 C-4.8,-3.3 -2.5,-6.5 0,-6.5 2.5,-6.5 4.8,-3.3 0,.7 Z M0,-1.7 A2,2 0 0 0 0,-5.7 A2,2 0 0 0 0,-1.7 Z" fill="#4cd964" />
<line x1="-1.4" x2="1.4" y1="-3.7" y2="-3.7" stroke-width=".7" stroke-linecap="round" stroke="#4cd964" />
<line x1="0" x2="0" y1="-5.1" y2="-2.3" stroke-width=".7" stroke-linecap="round" stroke="#4cd964" />
<g clip-path="url(#editor-gomap-map)">
<rect x="-7" y="-1" width="14" height="7" fill="#fff" />
<polygon points="-8,-0.9 -2.3,2.3 -8,3.8" fill="#5ac8fa" />
<polygon points="0.7,8 2.7,1.7 8,0.3 8,8" fill="#4cd964" />
<polygon points="-8,-1.6 8,-0.4 -1.3,2.1" fill="#ffcc00" />
<polygon points="-8,4.5 1.9,1.9 0,8 -8,8" fill="#ffcc00" />
</g>
</svg>
