<svg xmlns="http://www.w3.org/2000/svg" viewBox="0 0 135.4667 135.4667">
  <!-- adapted from https://github.com/bryceco/GoMap/blob/master/src/AppIcon.svg -->
  <defs>
    <linearGradient
       id="editor-gomap-gradient"
       gradientUnits="userSpaceOnUse"
       gradientTransform="translate(1456.872,1093.9004)"
       x1="69.920052"
       y1="199.59962"
       x2="71.965782"
       y2="63.897991">
      <stop offset="0" stop-color="#2c3e50" />
      <stop offset="1" stop-color="#34495e" />
    </linearGradient>
  </defs>
  <g transform="translate(-1460.65173,-1157.91594)">
    <path fill="url(#editor-gomap-gradient)"
       d="m 1491.7378,1157.9159 h 73.2946 c 17.2216,0 31.086,13.8643 31.086,31.086 v 73.2946 c 0,17.2217 -13.8644,31.0861 -31.086,31.0861 h -73.2946 c -17.2217,0 -31.0861,-13.8644 -31.0861,-31.0861 v -73.2946 c 0,-17.2217 13.8644,-31.086 31.0861,-31.086 z" />
    <path fill="#4cd964"
       d="m 1527.9655,1170.8782 c -13.1338,0 -23.7807,10.6473 -23.7807,23.7812 0,13.1338 12.4727,25.5868 23.7807,36.8949 11.3082,-11.3081 23.7812,-23.7611 23.7812,-36.8949 0,-13.1339 -10.6473,-23.7812 -23.7812,-23.7812 z m -0.048,6.5144 a 16.953203,16.953203 0 0 1 16.9536,16.9531 16.953203,16.953203 0 0 1 -16.9536,16.9531 16.953203,16.953203 0 0 1 -16.9531,-16.9531 16.953203,16.953203 0 0 1 16.9531,-16.9531 z" />
    <path fill="#4cd964"
       d="m 1527.587,1179.7264 c -1.4373,0.022 -2.6055,1.2253 -2.585,2.6626 v 9.0586 h -9.0538 c -0.8046,-0.015 -1.5381,0.3149 -2.0012,0.8286 -0.463,0.5136 -0.6711,1.1622 -0.6711,1.7976 0,0.6355 0.2081,1.2865 0.6711,1.8001 0.4631,0.5137 1.1966,0.8408 2.0012,0.8262 h 9.0538 v 9.0683 c -10e-4,0.7941 0.3321,1.515 0.8431,1.9697 0.511,0.4547 1.1535,0.659 1.7831,0.659 0.6296,0 1.2721,-0.2043 1.7831,-0.659 0.511,-0.4547 0.8443,-1.1756 0.8432,-1.9697 v -9.0683 h 9.0537 c 0.8046,0.015 1.5381,-0.3125 2.0012,-0.8262 0.4631,-0.5136 0.6711,-1.1646 0.6711,-1.8001 0,-0.6354 -0.208,-1.284 -0.6711,-1.7976 -0.4631,-0.5137 -1.1966,-0.8432 -2.0012,-0.8286 h -9.0537 v -9.0586 c 0.021,-1.468 -1.1995,-2.6855 -2.6675,-2.6626 z" />
    <path fill="#ffffff"
       d="m 1569.5379,1221.5028 -26.9922,0.084 c -3.8366,4.3759 -8.0806,8.5238 -12.0528,12.4959 l -2.5265,2.5245 -2.5273,-2.5245 c -3.9448,-3.9447 -8.1575,-8.0626 -11.9732,-12.4052 l -26.073,0.081 -13.7829,46.233 109.5838,0.1277 z" />
    <path fill="#5ac8fa"
       d="m 1484.4748,1231.5469 -6.5257,21.8888 31.2587,-8.2364 z" />
    <path fill="#4cd964"
       d="m 1573.267,1234.2319 -22.2658,5.8675 -8.7201,27.9728 40.9127,0.047 z" />
    <path fill="#ffcc00"
       d="m 1569.5379,1221.5028 -26.9922,0.084 c -3.8366,4.3759 -8.0806,8.5238 -12.0528,12.4959 l -2.5265,2.5245 -2.5273,-2.5245 c -3.9448,-3.9447 -8.1575,-8.0626 -11.9732,-12.4052 l -26.073,0.081 -1.2465,4.1807 31.0703,17.1498 54.4422,-14.3462 z" />
    <path fill="#ffcc00"
       d="m 1544.4769,1241.8185 -68.4409,18.0348 -2.426,8.138 62.6849,0.074 z" />
  </g>
</svg>
