<svg xmlns="http://www.w3.org/2000/svg" viewBox="-8 -8 16 16">
 <!-- simplified version based on https://github.com/JOSM/josm/blob/master/resources/images/logo.svg -->
 <defs>
  <clipPath id="editor-josm-map-fold1">
  <rect x="-6.5" y="-6.5" width="3" height="13" />
  </clipPath>
  <clipPath id="editor-josm-map-fold2">
  <rect x="-3.5" y="-6.5" width="7" height="13" />
  </clipPath>
  <clipPath id="editor-josm-map-fold3">
  <rect x="3.5" y="-6.5" width="3" height="13" />
  </clipPath>
  <g id="editor-josm-map">
  <rect x="-6.5" y="-6.5" width="13" height="13" fill="#ffd144" />
  <line x1="-6.5" y1="2" x2="-.5" y2="2" stroke="#3e5862" />
  <line x1="-7.5" y1="6" x2="-4.5" y2="2" stroke="#3e5862" />
  <polygon points="-7 -4.5, 0 -7, -7 -7" fill="#009d00" />
  <rect x="-7" y="-4" width="2" height="5" fill="#8c133f" />
  <rect x="-4" y="-3" width="2" height="4" fill="#33757c" />
  <polygon points="0 -7, 1 -7, 1 -4, 7 7, 3 7, 3 5, -.5 -4" fill="#316ed9" />
  <polygon points="-7 7, -2 5, 0 7" fill="#316ed9" />
  </g>
 </defs>
 <use href="#editor-josm-map" x="-1" clip-path="url(#editor-josm-map-fold1)" transform="skewY(25)" transform-origin="-6.5 0" filter="brightness(1.1)" />
 <use href="#editor-josm-map" x="-1" clip-path="url(#editor-josm-map-fold2)" transform="skewY(-12)" />
 <use href="#editor-josm-map" x="-1" clip-path="url(#editor-josm-map-fold3)" transform="skewY(27)" transform-origin="3.5 0" filter="brightness(1.1)" />
 <g transform="translate(-2 3) rotate(-48)">
 <polygon points="0 0, 4 -1.5, 4 1.5" fill="#cf9772" />
 <rect x="4" y="-1.5" width="9" height="3" fill="#853909" />
 </g>
</svg>
