<svg version="1.1" xmlns="http://www.w3.org/2000/svg" viewBox="-8 -8 16 16">
<!-- simplified version based on https://github.com/facebook/Rapid/blob/main/svg/rapid-sprite/graphics/logo-rapid.svg -->
<defs>
<clipPath id="editor-rapid-cut">
<path d="M-8,-8 H8 V8 H-8 Z M-3,-3 V0 H3.2 V-3 Z" />
</clipPath>
</defs>
<g fill="#c70bc6" clip-path="url(#editor-rapid-cut)">
<path d="M0,6 C-7,-2 -4,-6 0,-6 C4,-6 7,-2 0,6 M0,.3 A2,2 0 0 0 0,-3.7 A2,2 0 0 0 0,.3" transform="rotate(25)" transform-origin="0 6" />
</g>
<g stroke="#c70bc6" stroke-linecap="round">
<line x1="-7" x2="1" y1="-3.5" y2="-3.5" />
<line x1="-5" x2="1" y1=".5" y2=".5" />
<line x1="-3" x2="1" y1="2.5" y2="2.5" />
<line x1="-1" x2="1" y1="4.5" y2="4.5" />
</g>
<g stroke="#c70bc6" stroke-linecap="round" stroke-width=".7">
<line x1="-6" x2="-4.5" y1="-1.5" y2="-1.5" />
<line x1="-3" x2="-1.5" y1="-1.5" y2="-1.5" />
<line x1="0" x2="1.5" y1="-1.5" y2="-1.5" />
</g>
</svg>
