<svg xmlns="http://www.w3.org/2000/svg" viewBox="0 0 16 16">
<!-- adapted from https://github.com/streetcomplete/StreetComplete/blob/master/res/graphics/app%20icon/appicon_flat.svg -->
<g transform="scale(.1875) matrix(1.3333,0,0,-1.3333,0,85.333)">
<path d="m64 32c0-17.673-14.327-32-32-32s-32 14.327-32 32 14.327 32 32 32 32-14.327 32-32" fill="#7db6d8"/>
<path d="m30 52v-44c0-1.1047 0.8953-2 2-2s2 0.89531 2 2v44c0 1.1047-0.8953 2-2 2s-2-0.8953-2-2" fill="#f3cc70"/>
<path d="m18.485 50c-0.4161 0-1.0043-0.2461-1.3079-0.5465l-4.95-4.907c-0.3031-0.3004-0.3031-0.7926 0-1.093l4.95-4.907c0.3036-0.3004 0.8918-0.5465 1.3079-0.5465h20.759c0.416 0 0.7562 0.3598 0.7562 0.7992v10.402c0 0.4394-0.3402 0.7992-0.7562 0.7992h-20.759" fill="#495672"/>
<path d="m49.515 24c0.4161 0 1.0043 0.2461 1.3079 0.5465l4.95 4.907c0.3031 0.3004 0.3031 0.7926 0 1.093l-4.95 4.907c-0.3036 0.3004-0.8918 0.5465-1.3079 0.5465h-24.758c-0.4161 0-0.7563-0.3598-0.7563-0.7992v-10.402c0-0.4394 0.3402-0.7992 0.7563-0.7992h24.758" fill="#fff"/>
</g>
</svg>
