<svg xmlns="http://www.w3.org/2000/svg" viewBox="-8 -8 16 16">
<g stroke="#000" stroke-width=".01">
<line x1="-8" x2="+8" y1="-7" y2="-7" />
<line x1="-8" x2="+8" y1="-6" y2="-6" />
<line x1="-8" x2="+8" y1="-5" y2="-5" />
<line x1="-8" x2="+8" y1="-4" y2="-4" stroke-width=".02" />
<line x1="-8" x2="+8" y1="-3" y2="-3" />
<line x1="-8" x2="+8" y1="-2" y2="-2" />
<line x1="-8" x2="+8" y1="-1" y2="-1" />
<line x1="-8" x2="+8" y1=" 0" y2=" 0" stroke-width=".03" />
<line x1="-8" x2="+8" y1="+1" y2="+1" />
<line x1="-8" x2="+8" y1="+2" y2="+2" />
<line x1="-8" x2="+8" y1="+3" y2="+3" />
<line x1="-8" x2="+8" y1="+4" y2="+4" stroke-width=".02" />
<line x1="-8" x2="+8" y1="+5" y2="+5" />
<line x1="-8" x2="+8" y1="+6" y2="+6" />
<line x1="-8" x2="+8" y1="+7" y2="+7" />
<line y1="-8" y2="+8" x1="-7" x2="-7" />
<line y1="-8" y2="+8" x1="-6" x2="-6" />
<line y1="-8" y2="+8" x1="-5" x2="-5" />
<line y1="-8" y2="+8" x1="-4" x2="-4" stroke-width=".02" />
<line y1="-8" y2="+8" x1="-3" x2="-3" />
<line y1="-8" y2="+8" x1="-2" x2="-2" />
<line y1="-8" y2="+8" x1="-1" x2="-1" />
<line y1="-8" y2="+8" x1=" 0" x2=" 0" stroke-width=".03"  />
<line y1="-8" y2="+8" x1="+1" x2="+1" />
<line y1="-8" y2="+8" x1="+2" x2="+2" />
<line y1="-8" y2="+8" x1="+3" x2="+3" />
<line y1="-8" y2="+8" x1="+4" x2="+4" stroke-width=".02" />
<line y1="-8" y2="+8" x1="+5" x2="+5" />
<line y1="-8" y2="+8" x1="+6" x2="+6" />
<line y1="-8" y2="+8" x1="+7" x2="+7" />
</g>
</svg>
