<svg xmlns="http://www.w3.org/2000/svg" viewBox="0 0 16 16">
 <!-- adapted from https://github.com/JOSM/josm/blob/master/resources/images/logo.svg -->
 <defs>
  <linearGradient id="linearGradient9147">
   <stop stop-color="#ffd555" offset="0"/>
   <stop stop-color="#ffcb27" offset="1"/>
  </linearGradient>
  <linearGradient id="linearGradient3892" x1="716.07" x2="787.83" y1="454.99" y2="219.39" gradientTransform="matrix(.98704 .23824 -.9468 1.3017 230.53 -134.51)" gradientUnits="userSpaceOnUse">
   <stop offset="0"/>
   <stop stop-color="#3c3c3c" stop-opacity="0" offset="1"/>
  </linearGradient>
  <filter id="filter4005">
   <feGaussianBlur stdDeviation="10"/>
  </filter>
  <linearGradient id="linearGradient4017" x1="455" x2="532.2" y1="690" y2="656.35" gradientTransform="matrix(1.0062 .23807 -.23807 1.0062 94.828 -143.1)" gradientUnits="userSpaceOnUse">
   <stop stop-opacity=".36869" offset="0"/>
   <stop stop-color="#3c3c3c" stop-opacity="0" offset="1"/>
  </linearGradient>
  <filter id="filter3987" x="-.033087" y="-.30881" width="1.0662" height="1.6176">
   <feGaussianBlur stdDeviation="11.58046"/>
  </filter>
  <clipPath id="clipPath3411">
   <path d="m1320 320c15 5 25 20 25 20 10 15 10 40 10 40 5 10 5 30 0 40 0 0 0 25-10 40 0 0-10 15-25 20h540l40-20 20-40v-40l-20-40-40-20z" fill="none" stroke="#000" stroke-width="1px"/>
  </clipPath>
  <clipPath id="clipPath3446">
   <path d="m1320 320-200 80 200 80 60-20v-120z" fill="#dfc4b3"/>
  </clipPath>
  <clipPath>
   <path d="m1478.6-6.6948v326.69h264.09v-326.69z" fill="#fff"/>
  </clipPath>
  <clipPath id="clipPath5203">
   <rect x="80" y="140" width="800" height="800" fill="none" stroke="#515151" stroke-dasharray="8, 8" stroke-width="4" style="paint-order:normal"/>
  </clipPath>
  <clipPath>
   <rect x="80" y="140" width="800" height="800" fill="none" stroke="#515151" stroke-dasharray="8, 8" stroke-width="4" style="paint-order:normal"/>
  </clipPath>
  <clipPath id="clipPath9081">
   <rect transform="matrix(.98233 .18717 0 1 0 0)" x="255.85" y="-55.827" width="427.56" height="1040" fill="#fff" fill-opacity=".17172" style="paint-order:normal"/>
  </clipPath>
  <clipPath id="clipPath9114">
   <path d="m31.923 874.34 200.04 100.23 419.97-80.09 199.44 99.734v-840.06l-199.44-99.73-419.97 80.091-200.04-100.23z" fill="#ff4dcf" fill-opacity=".17172"/>
  </clipPath>
  <clipPath id="clipPath9126">
   <path d="m24.202 100.97 225.77 18.969 9.9354 7.2365 4.9204 812.94-14.817 19.843-225.81 112.71z" fill="none" stroke="#515151" stroke-dasharray="7.37136328, 7.37136328" stroke-width="3.6857" style="paint-order:normal"/>
  </clipPath>
  <clipPath id="clipPath9132">
   <path d="m670.56 120.09 220.5-38.478-6.6071 882.19-213.89-3.6131-16.826-7.4582-3.1965-803.02z" fill="none" stroke="#515151" stroke-dasharray="8.19754535, 8.19754535" stroke-width="4.0988" style="paint-order:normal"/>
  </clipPath>
  <linearGradient id="linearGradient9261" x1="146.47" x2="826.26" y1="211.9" y2="900.62" gradientUnits="userSpaceOnUse" xlink:href="#linearGradient9147"/>
  <linearGradient id="linearGradient9439" x1="1240" x2="1240" y1="480" y2="320" gradientUnits="userSpaceOnUse">
   <stop stop-color="#ad7a4a" offset="0"/>
   <stop stop-color="#edb096" offset="1"/>
  </linearGradient>
  <linearGradient id="linearGradient1686" x1="1655.9" x2="1561.9" y1="655.03" y2="367.53" gradientTransform="translate(-73.236 -11.978)" gradientUnits="userSpaceOnUse">
   <stop stop-color="#1e427c" offset="0"/>
   <stop stop-color="#5373a7" offset="1"/>
  </linearGradient>
  <linearGradient id="linearGradient1141" x1="893.78" x2="1255.8" y1="-484.92" y2="1410.1" gradientUnits="userSpaceOnUse">
   <stop stop-color="#1e427c" offset="0"/>
   <stop stop-color="#4471aa" offset="1"/>
  </linearGradient>
  <radialGradient id="radialGradient1164" cx="494" cy="556.57" r="1922" gradientTransform="matrix(1.0725 -.64308 .38446 .64115 -249.77 517.41)" gradientUnits="userSpaceOnUse">
   <stop stop-color="#e3e5fc" stop-opacity=".28283" offset="0"/>
   <stop stop-color="#7ca4e5" stop-opacity="0" offset="1"/>
  </radialGradient>
  <clipPath id="clipPath1210">
   <path d="m80 140v800h800v-800z" fill="url(#linearGradient1214)"/>
  </clipPath>
  <linearGradient id="linearGradient1214" x1="146.47" x2="826.26" y1="211.9" y2="900.62" gradientTransform="translate(-289.08 -8.1047)" gradientUnits="userSpaceOnUse" xlink:href="#linearGradient9147"/>
  <g id="g8961" transform="matrix(1.0501 0 0 1.0501 -44.07 -27.074)">
   <g clip-path="url(#clipPath1210)">
    <path d="m80 140v800h800v-800h-533.33z" display="inline" fill="url(#linearGradient9261)"/>
    <path d="m531.5 222.5 15 92 35 55.5 70 68 12.5 59.5 38 206.5 49 69 58.257-28.161s-2.1864-22.553-4.9461-33.497c-3.0728-12.186-6.5571-24.564-12.837-35.45-6.7681-11.733-19.666-19.213-26.147-31.107-8.2251-15.095-7.3774-33.969-15.183-49.285-6.7183-13.182-20.046-22.257-26.644-35.5-9.1263-18.319-13.796-38.786-17-59-4.6213-29.153 5.0205-60.094-3-88.5-8.4371-29.882-24.655-58.45-46-81-19.069-20.145-50.438-25.333-70-45-11.836-11.9-20.345-27.092-27-42.5-11.185-25.894-20.895-82-20.895-82l-12.105-4.0005zm-191.75 616.43s63.309 0.96432 94.581 5.3432c23.45 3.2836 46.793 8.2605 69.296 15.627 18.808 6.1569 34.679 22.427 54.426 23.716 16.721 1.0915 35.08-3.6281 48.304-13.919 11.784-9.1705 18.18-24.415 22.596-38.679 4.4046-14.228 5.7993-29.902 3.201-44.569-4.0062-22.613-28.243-62.841-28.243-62.841l107.44 79.811-16 127.22-41.559 11.355-93.244 1-218.56-23.598z" fill="#fff3aa"/>
    <path d="m550.71 133.99-61.414 0.70711c-10 20-29.293 64.072-29.293 105.3 0 110 43.061 102.8 70 170 26.924 67.167 25.747 148.73 40 220 10 50 26.769 121.42 70 145 12.415 6.772 40 65 40 95 0 31.181-14.254 51.281-32.71 74l235.71-2 3-83c-10-80-136-189-170.28-233.28-48.427-62.554-31.486-96.719-45.719-170.72-16.322-84.86-90.308-90.354-110-155-33.636-110.42-9.2929-126.01-9.2929-166.01zm-187.79 696.02c-47.495-5.0249-87.293 15.056-126.93 33.75-22.567 10.642-36.972-11.182-77.421 79.236l408.48 1c-25.217-26.943-59.673-69.761-113.61-77.117-44.093-6.0127-19.929-29.401-90.515-36.868z" fill="#316ed9"/>
    <path d="m410.16 136.5c-10 20-34.115 55.17-59.539 71.06-24.626 15.391-90.258 24.027-128.91 19.938-45.235-4.7851-54.207-16.326-147.71-2.5097l3-88.988z" fill="#009d00"/>
   </g>
   <g clip-path="url(#clipPath5203)">
    <rect transform="rotate(-5.9986)" x="-125.68" y="332" width="266.73" height="297.25" fill="#8c133f" style="paint-order:normal"/>
    <rect transform="rotate(-5.9986)" x="211.04" y="436.22" width="108.51" height="193.02" ry="0" display="inline" fill="#33757c" style="paint-order:normal"/>
    <path d="m-23.249 725.65 457.48-48.083" display="inline" fill="none" stroke="#234868" stroke-opacity=".87879" stroke-width="50"/>
    <path d="m19.638 942.35 165.96-238.66" display="inline" fill="none" stroke="#234868" stroke-opacity=".87879" stroke-width="40"/>
    <path d="m220.71 694.29c5.1944 19.388-6.3115 39.315-25.699 44.51-19.388 5.1944-39.315-6.3116-44.51-25.699-5.1944-19.388 6.3115-39.315 25.699-44.51 19.388-5.1944 39.315 6.3115 44.51 25.699z" display="inline" fill="#fff" stroke="#0d4474" stroke-linecap="round" stroke-linejoin="round" stroke-opacity=".87879" stroke-width="8" style="paint-order:stroke fill markers"/>
    <path d="m469.34 668.16c5.1944 19.388-6.3116 39.315-25.699 44.51-19.388 5.1944-39.315-6.3116-44.51-25.699-5.1944-19.388 6.3116-39.315 25.699-44.51 19.388-5.1944 39.315 6.3116 44.51 25.699z" display="inline" fill="#fff" stroke="#0d4474" stroke-linecap="round" stroke-linejoin="round" stroke-opacity=".87879" stroke-width="8" style="paint-order:stroke fill markers"/>
   </g>
  </g>
 </defs>
 <g transform="scale(.016)">
  <path transform="matrix(1.1752 0 0 1.1752 -3.5969 -179.75)" d="m42.5 875 157 82.5 339.5-49.5 167.42 58.282-159.72-193.81-349.3 31.287z" filter="url(#filter3987)"/>
  <use transform="matrix(.93735 .46871 0 .98421 13.567 -378.78)" width="100%" height="100%" clip-path="url(#clipPath9132)" xlink:href="#g8961"/>
  <use transform="matrix(.93735 .46968 0 .98421 -5.5112 -103.04)" width="100%" height="100%" clip-path="url(#clipPath9126)" xlink:href="#g8961"/>
  <use transform="matrix(.98421 -.18753 0 .98421 -18.576 61.421)" width="100%" height="100%" clip-path="url(#clipPath9081)" xlink:href="#g8961"/>
  <path transform="matrix(.98421 0 0 .98421 .50408 .023626)" d="m31.074 33.33-0.32002 842.49 201.21 100.42v-843.52zm620.77 20.744v843.93l202.14 98.428-1.3149-843.29z" clip-path="url(#clipPath9114)" fill="#fff" fill-opacity=".40909"/>
  <path transform="matrix(1.0219 .16971 -.15751 1.02 2.6685 -114.58)" d="m572.1 580.75-95.569 102.6 204.98-117.81 25.757-36.294 161.97-75.173-34.804-178.53-170.78 127.79z" fill="url(#linearGradient3892)" filter="url(#filter4005)"/>
  <path d="m382.15 663.32 195.91-58.147-3.4364-48.982z" fill="url(#linearGradient4017)"/>
  <g transform="matrix(.69887 -.76199 .76199 .69887 -433.6 1430.4) translate(-40,-320)">
   <path d="m1320 320-126.92 50.767-31.082 21.733-42 7.5 41.772 3.2586 31.203 25.931 127.03 50.81 60-20v-120z" display="inline" fill="url(#linearGradient9439)"/>
   <g clip-path="url(#clipPath3411)">
    <path d="m1280 350v100h660v-100z" clip-path="none" display="inline" fill="#853909"/>
    <path d="m1940 380v-40l-85-10h-480l-95 10v40z" clip-path="none" fill="#974613"/>
    <path d="m1940 420v40l-85 10h-495l-80-10v-40z" clip-path="none" fill="#642b06"/>
    <path d="m1280 320v20h660v-20z" clip-path="none" display="inline" fill="#b25c28"/>
    <path d="m1280 460v20h660v-20z" clip-path="none" display="inline" fill="#4d2105"/>
   </g>
   <path d="m1115 400 65-40c30 15 30 65 0 80z" clip-path="url(#clipPath3446)" fill="#3d3d3d"/>
  </g>
 </g>
</svg>
